<svg width="40" height="40" viewBox="0 0 40 40" fill="none" xmlns="http://www.w3.org/2000/svg">
<path d="M7.91666 40H32.0834C36.4483 40 40 36.4483 40 32.0834V7.91666C40 3.55166 36.4483 0 32.0834 0H7.91666C3.55166 0 0 3.55166 0 7.91666V32.0834C0 36.4483 3.55166 40 7.91666 40ZM2.5 7.91666C2.5 4.93 4.93 2.5 7.91666 2.5H32.0834C35.07 2.5 37.5 4.93 37.5 7.91666V32.0834C37.5 35.07 35.07 37.5 32.0834 37.5H7.91666C4.93 37.5 2.5 35.07 2.5 32.0834V7.91666Z" fill="#726DA8"/>
<path d="M20 30.2167C25.6333 30.2167 30.2167 25.6334 30.2167 20.0001C30.2167 14.3667 25.6333 9.78336 20 9.78336C14.3667 9.78336 9.78333 14.3667 9.78333 20.0001C9.78333 25.6334 14.3667 30.2167 20 30.2167ZM20 12.2834C24.255 12.2834 27.7167 15.745 27.7167 20.0001C27.7167 24.255 24.255 27.7167 20 27.7167C15.745 27.7167 12.2833 24.255 12.2833 20.0001C12.2833 15.745 15.745 12.2834 20 12.2834Z" fill="#726DA8"/>
<path d="M30.5966 12.2698C32.24 12.2698 33.4783 11.0366 33.4783 9.40152C33.4783 7.69654 32.175 6.5332 30.5983 6.5332C28.955 6.5332 27.7167 7.76654 27.7167 9.40152C27.7167 11.1032 29.0133 12.2698 30.5966 12.2698ZM30.8916 9.12656C31.4183 9.59152 30.2166 10.1566 30.2166 9.4032C30.2166 8.9532 30.8283 9.06984 30.8916 9.12656Z" fill="#726DA8"/>
</svg>
