<svg width="40" height="40" viewBox="0 0 40 40" fill="none" xmlns="http://www.w3.org/2000/svg">
<g clip-path="url(#clip0_22_242)">
<path d="M20.2417 32.5C26.0283 32.5 23.965 28.8366 24.4117 27.7834C24.405 26.9966 24.3983 26.24 24.425 25.78C24.7917 25.8834 25.6566 26.3217 27.4434 28.0583C30.2017 30.8417 30.9066 32.5 33.135 32.5H37.2366C38.5366 32.5 39.2134 31.9617 39.5517 31.51C39.8783 31.0734 40.1983 30.3066 39.8483 29.1134C38.9334 26.24 33.5966 21.2783 33.265 20.755C33.315 20.6583 33.395 20.53 33.4366 20.4634H33.4334C34.4866 19.0717 38.5066 13.0483 39.0983 10.6383C39.1 10.635 39.1017 10.63 39.1017 10.625C39.4217 9.52496 39.1283 8.81168 38.825 8.40832C38.3683 7.805 37.6417 7.5 36.66 7.5H32.5583C31.185 7.5 30.1434 8.19168 29.6166 9.45336C28.735 11.695 26.2583 16.305 24.4017 17.9366C24.345 15.625 24.3834 13.86 24.4134 12.5483C24.4734 9.99 24.6666 7.5 22.0117 7.5H15.565C13.9017 7.5 12.31 9.31664 14.0334 11.4734C15.54 13.3634 14.575 14.4166 14.9 19.66C13.6334 18.3017 11.38 14.6334 9.78664 9.94496C9.34 8.67664 8.66336 7.50166 6.75834 7.50166H2.65666C0.993336 7.50166 0 8.40832 0 9.92664C0 13.3366 7.54834 32.5 20.2417 32.5ZM6.75834 10.0017C7.12 10.0017 7.15666 10.0017 7.425 10.7634C9.05664 15.5683 12.7166 22.6783 15.39 22.6783C17.3983 22.6783 17.3983 20.62 17.3983 19.845L17.3966 13.675C17.2866 11.6334 16.5434 10.6166 16.055 10L21.9017 10.0066C21.905 10.035 21.8683 16.8317 21.9183 18.4783C21.9183 20.8166 23.775 22.1566 26.6734 19.2234C29.7317 15.7717 31.8466 10.6117 31.9317 10.4017C32.0566 10.1017 32.165 10 32.5583 10H36.66H36.6766C36.675 10.005 36.675 10.01 36.6734 10.015C36.2983 11.765 32.5966 17.3417 31.3583 19.0734C31.3383 19.1 31.32 19.1283 31.3017 19.1566C30.7566 20.0466 30.3134 21.03 31.3766 22.4134H31.3783C31.475 22.53 31.7266 22.8034 32.0934 23.1834C33.2334 24.36 37.1434 28.3834 37.49 29.9834C37.26 30.02 37.01 29.9934 33.135 30.0017C32.31 30.0017 31.665 28.7683 29.2034 26.285C26.99 24.1317 25.5534 23.2517 24.245 23.2517C21.705 23.2517 21.89 25.3134 21.9134 27.8066C21.9217 30.51 21.905 29.655 21.9234 29.825C21.775 29.8834 21.35 30 20.2417 30C9.66664 30 2.78 13.215 2.515 10.0066C2.60666 9.99832 3.86834 10.0034 6.75834 10.0017Z" fill="#726DA8"/>
</g>
<defs>
<clipPath id="clip0_22_242">
<rect width="40" height="40" fill="white"/>
</clipPath>
</defs>
</svg>
